<?xml version="1.0" encoding="utf-8"?>
<!-- Generator: Adobe Illustrator 16.0.0, SVG Export Plug-In . SVG Version: 6.00 Build 0)  -->
<!DOCTYPE svg PUBLIC "-//W3C//DTD SVG 1.1//EN" "http://www.w3.org/Graphics/SVG/1.1/DTD/svg11.dtd">
<svg version="1.1" id="Layer_1" xmlns="http://www.w3.org/2000/svg" xmlns:xlink="http://www.w3.org/1999/xlink" x="0px" y="0px"
	 width="512px" height="512px" viewBox="0 0 512 512" enable-background="new 0 0 512 512" xml:space="preserve">
<g>
	<path d="M494,467.2L376.2,349.4C405.4,313.8,424,267.2,424,217.5C424,103.5,331.5,11,217.5,11C103.4,11,11,103.5,11,217.5
		S103.4,424,217.5,424c49.7,0,96.2-18.5,131.8-47.7L467.1,494c8,8,19.9,9,27.9,1C503,487.1,502,475.1,494,467.2z M217.5,384.9
		C126.2,384.9,50,308.7,50,217.5S126.2,50,217.5,50C308.7,50,385,126.3,385,217.5S308.7,384.9,217.5,384.9z"/>
</g>
</svg>
